<svg xmlns="http://www.w3.org/2000/svg" width="900" height="1200" viewBox="0 0 900 1200" role="img" aria-label="App mockup">
  <defs>
    <linearGradient id="screen" x1="0" x2="1" y1="0" y2="1">
      <stop offset="0%" stop-color="#0f172a"/>
      <stop offset="50%" stop-color="#111827"/>
      <stop offset="100%" stop-color="#0b0f1a"/>
    </linearGradient>
    <linearGradient id="glow" x1="0" x2="1" y1="0" y2="1">
      <stop offset="0%" stop-color="#7dd3fc" stop-opacity="0.9"/>
      <stop offset="100%" stop-color="#38bdf8" stop-opacity="0.1"/>
    </linearGradient>
  </defs>
  <rect x="120" y="40" width="660" height="1120" rx="90" fill="#0a0a0d" stroke="#1f2937" stroke-width="8"/>
  <rect x="170" y="110" width="560" height="980" rx="60" fill="url(#screen)"/>
  <circle cx="450" cy="90" r="10" fill="#1f2937"/>
  <rect x="220" y="170" width="460" height="110" rx="30" fill="#0b1220" stroke="#1f2937" stroke-width="2"/>
  <rect x="240" y="200" width="180" height="12" rx="6" fill="#e2e8f0"/>
  <rect x="240" y="222" width="280" height="10" rx="5" fill="#94a3b8"/>
  <rect x="240" y="244" width="160" height="10" rx="5" fill="#64748b"/>

  <rect x="220" y="320" width="460" height="220" rx="40" fill="#0f172a" stroke="#1f2937" stroke-width="2"/>
  <rect x="250" y="350" width="200" height="16" rx="8" fill="#cbd5f5"/>
  <rect x="250" y="380" width="320" height="12" rx="6" fill="#94a3b8"/>
  <rect x="250" y="410" width="280" height="12" rx="6" fill="#94a3b8"/>
  <rect x="250" y="440" width="140" height="12" rx="6" fill="#475569"/>

  <rect x="220" y="580" width="460" height="180" rx="40" fill="#0b1220" stroke="#1f2937" stroke-width="2"/>
  <rect x="250" y="620" width="140" height="14" rx="7" fill="#e2e8f0"/>
  <rect x="250" y="650" width="300" height="10" rx="5" fill="#94a3b8"/>
  <rect x="250" y="675" width="260" height="10" rx="5" fill="#94a3b8"/>

  <rect x="220" y="800" width="460" height="220" rx="40" fill="#0f172a" stroke="#1f2937" stroke-width="2"/>
  <rect x="250" y="840" width="200" height="16" rx="8" fill="#cbd5f5"/>
  <rect x="250" y="870" width="320" height="12" rx="6" fill="#94a3b8"/>
  <rect x="250" y="900" width="280" height="12" rx="6" fill="#94a3b8"/>
  <rect x="250" y="930" width="140" height="12" rx="6" fill="#475569"/>

  <rect x="170" y="110" width="560" height="980" rx="60" fill="url(#glow)" opacity="0.2"/>
</svg>
